<?xml version="1.0" encoding="UTF-8"?>
<svg height="128px" viewBox="0 0 128 128" width="128px" xmlns="http://www.w3.org/2000/svg" xmlns:xlink="http://www.w3.org/1999/xlink">
    <linearGradient id="a" gradientTransform="matrix(0.985089 0 0 0.944424 492.547638 -161.914202)" gradientUnits="userSpaceOnUse" x1="-477.143341" x2="-390.927185" y1="231.546494" y2="231.546494">
        <stop offset="0" stop-color="#62a0ea"/>
        <stop offset="0.164438" stop-color="#62a0ea" stop-opacity="0.65098"/>
        <stop offset="0.309563" stop-color="#62a0ea"/>
        <stop offset="0.750343" stop-color="#62a0ea"/>
        <stop offset="0.826708" stop-color="#62a0ea" stop-opacity="0.65098"/>
        <stop offset="1" stop-color="#62a0ea"/>
    </linearGradient>
    <path d="m 47.519531 14.496094 h 34.929688 c 13.808593 0 25 11.195312 25 25 v 34.535156 c 0 13.804688 -11.191407 25 -25 25 h -34.929688 c -13.808593 0 -25 -11.195312 -25 -25 v -34.535156 c 0 -13.804688 11.191407 -25 25 -25 z m 0 0" fill="url(#a)"/>
    <path d="m 47.582031 11.269531 h 34.929688 c 13.804687 0 25 11.195313 25 25 v 34.535157 c 0 13.804687 -11.195313 25 -25 25 h -34.929688 c -13.808593 0 -25 -11.195313 -25 -25 v -34.535157 c 0 -13.804687 11.191407 -25 25 -25 z m 0 0" fill="#62a0ea"/>
    <path d="m 84.316406 97.199219 l 0.0625 18.09375 l -19.488281 -11.308594 l -18.335937 -10.605469 l 19.460937 -7.9375 l 18.273437 -7.488281 z m 0 0" fill="#62a0ea"/>
    <g fill="#f6f5f4">
        <path d="m 55.785156 49.664062 h 19.273438 c 10.070312 0 18.234375 7.636719 18.234375 17.050782 v 5.925781 c 0 9.417969 -8.164063 17.050781 -18.234375 17.050781 h -19.273438 c -10.070312 0 -18.234375 -7.632812 -18.234375 -17.050781 v -5.925781 c 0 -9.414063 8.164063 -17.050782 18.234375 -17.050782 z m 0 0"/>
        <path d="m 79.234375 32.378906 c 0 7.050782 -5.972656 12.765625 -13.339844 12.765625 c -7.371093 0 -13.34375 -5.714843 -13.34375 -12.765625 c 0 -7.050781 5.972657 -12.765625 13.34375 -12.765625 c 7.367188 0 13.339844 5.714844 13.339844 12.765625 z m 0 0"/>
    </g>
</svg>
