<?xml version="1.0" encoding="UTF-8"?>
<svg height="16px" viewBox="0 0 16 16" width="16px" xmlns="http://www.w3.org/2000/svg">
    <g fill="#241f31" fill-rule="evenodd">
        <path d="m 11.40625 4.386719 c 0 1.84375 -1.550781 3.335937 -3.46875 3.335937 c -1.914062 0 -3.46875 -1.492187 -3.46875 -3.335937 c 0 -1.839844 1.554688 -3.332031 3.46875 -3.332031 c 1.917969 0 3.46875 1.492187 3.46875 3.332031 z m 0 0"/>
        <path d="m 3.265625 8.667969 h 9.191406 c 1.84375 0 3.335938 1.277343 3.335938 2.855469 v 0.886718 c 0 1.578125 -1.492188 2.855469 -3.335938 2.855469 h -9.191406 c -1.84375 0 -3.3359375 -1.277344 -3.3359375 -2.855469 v -0.886718 c 0 -1.578126 1.4921875 -2.855469 3.3359375 -2.855469 z m 0 0"/>
    </g>
</svg>
